<svg width="25" height="25" viewBox="0 0 25 25" fill="none" xmlns="http://www.w3.org/2000/svg">
<path d="M19.6704 11.6871C19.2749 11.6871 18.9526 11.3649 18.9526 10.9694C18.9526 8.95764 18.1689 7.06311 16.7456 5.63977C16.4648 5.35901 16.4648 4.90491 16.7456 4.62415C17.0264 4.34338 17.4805 4.34338 17.7612 4.62415C19.4556 6.31848 20.3882 8.5719 20.3882 10.9669C20.3857 11.3649 20.0659 11.6871 19.6704 11.6871ZM5.31494 11.6871C4.91943 11.6871 4.59717 11.3649 4.59717 10.9694C4.59717 8.57434 5.52978 6.32092 7.22412 4.62659C7.50488 4.34583 7.95898 4.34583 8.23975 4.62659C8.52051 4.90735 8.52051 5.36145 8.23975 5.64221C6.81641 7.06555 6.03271 8.95764 6.03271 10.9718C6.03271 11.3649 5.71289 11.6871 5.31494 11.6871ZM12.4927 21.1012C13.7915 21.1012 14.8804 20.1759 15.1294 18.9479H9.85596C10.105 20.1759 11.1938 21.1012 12.4927 21.1012Z" fill="#51AFC6"/>
<mask id="path-2-inside-1" fill="white">
<path fill-rule="evenodd" clip-rule="evenodd" d="M17.5171 10.3369V12.0874V12.0874V12.3364C17.5171 13.7573 18.1397 15.0976 19.2236 16.0156C19.5093 16.2597 19.6704 16.6088 19.6704 16.9751C19.6704 17.6684 19.104 18.2324 18.4131 18.2324H15.2246C14.6899 17.5756 14.3726 16.7529 14.3726 15.8618C14.3726 14.1505 15.5432 12.6973 17.1691 12.1817C15.5429 12.697 14.3703 14.1484 14.3726 15.8643C14.3726 16.7578 14.6899 17.5781 15.2246 18.2349H6.57227C5.87891 18.2349 5.31494 17.6709 5.31494 16.9775C5.31494 16.6089 5.47607 16.2622 5.75439 16.0229C6.8457 15.1001 7.46826 13.7598 7.46826 12.3389V10.3369C7.46826 7.8125 9.34326 5.72021 11.7749 5.37109V4.59717C11.7749 4.19922 12.0972 3.87939 12.4927 3.87939C12.8882 3.87939 13.2104 4.19922 13.2104 4.59717V5.37109C15.6421 5.72021 17.5171 7.8125 17.5171 10.3369Z"/>
</mask>
<path fill-rule="evenodd" clip-rule="evenodd" d="M17.5171 10.3369V12.0874V12.0874V12.3364C17.5171 13.7573 18.1397 15.0976 19.2236 16.0156C19.5093 16.2597 19.6704 16.6088 19.6704 16.9751C19.6704 17.6684 19.104 18.2324 18.4131 18.2324H15.2246C14.6899 17.5756 14.3726 16.7529 14.3726 15.8618C14.3726 14.1505 15.5432 12.6973 17.1691 12.1817C15.5429 12.697 14.3703 14.1484 14.3726 15.8643C14.3726 16.7578 14.6899 17.5781 15.2246 18.2349H6.57227C5.87891 18.2349 5.31494 17.6709 5.31494 16.9775C5.31494 16.6089 5.47607 16.2622 5.75439 16.0229C6.8457 15.1001 7.46826 13.7598 7.46826 12.3389V10.3369C7.46826 7.8125 9.34326 5.72021 11.7749 5.37109V4.59717C11.7749 4.19922 12.0972 3.87939 12.4927 3.87939C12.8882 3.87939 13.2104 4.19922 13.2104 4.59717V5.37109C15.6421 5.72021 17.5171 7.8125 17.5171 10.3369Z" fill="#51AFC6"/>
<path d="M19.2236 16.0156L19.3505 15.8671L19.3499 15.8665L19.2236 16.0156ZM15.2246 18.2324L15.0731 18.3557L15.1318 18.4277H15.2246V18.2324ZM17.1691 12.1817L17.2282 12.3678L17.1101 11.9955L17.1691 12.1817ZM14.3726 15.8643H14.5679V15.864L14.3726 15.8643ZM15.2246 18.2349V18.4302H15.6355L15.3761 18.1116L15.2246 18.2349ZM5.75439 16.0229L5.62827 15.8738L5.62707 15.8748L5.75439 16.0229ZM11.7749 5.37109L11.8027 5.56442L11.9702 5.54037V5.37109H11.7749ZM13.2104 5.37109H13.0151V5.54037L13.1827 5.56442L13.2104 5.37109ZM17.7124 12.0874V10.3369H17.3218V12.0874H17.7124ZM17.7124 12.0874V12.0874H17.3218V12.0874H17.7124ZM17.7124 12.3364V12.0874H17.3218V12.3364H17.7124ZM19.3499 15.8665C18.3096 14.9856 17.7124 13.6998 17.7124 12.3364H17.3218C17.3218 13.8148 17.9697 15.2096 19.0974 16.1646L19.3499 15.8665ZM19.8657 16.9751C19.8657 16.5508 19.6789 16.1478 19.3505 15.8671L19.0967 16.1641C19.3396 16.3717 19.4751 16.6668 19.4751 16.9751H19.8657ZM18.4131 18.4277C19.2116 18.4277 19.8657 17.7765 19.8657 16.9751H19.4751C19.4751 17.5603 18.9964 18.0371 18.4131 18.0371V18.4277ZM15.2246 18.4277H18.4131V18.0371H15.2246V18.4277ZM14.1772 15.8618C14.1772 16.8004 14.5118 17.6662 15.0731 18.3557L15.3761 18.1091C14.8681 17.4851 14.5679 16.7054 14.5679 15.8618H14.1772ZM17.1101 11.9955C15.4112 12.5343 14.1772 14.0571 14.1772 15.8618H14.5679C14.5679 14.2439 15.6752 12.8603 17.2282 12.3678L17.1101 11.9955ZM14.5679 15.864C14.5657 14.2419 15.6748 12.8601 17.2281 12.3678L17.1101 11.9955C15.4111 12.5339 14.1748 14.055 14.1772 15.8645L14.5679 15.864ZM15.3761 18.1116C14.8681 17.4876 14.5679 16.7103 14.5679 15.8643H14.1772C14.1772 16.8054 14.5118 17.6687 15.0731 18.3582L15.3761 18.1116ZM6.57227 18.4302H15.2246V18.0396H6.57227V18.4302ZM5.11963 16.9775C5.11963 17.7788 5.77104 18.4302 6.57227 18.4302V18.0396C5.98677 18.0396 5.51025 17.563 5.51025 16.9775H5.11963ZM5.62707 15.8748C5.30604 16.1508 5.11963 16.5514 5.11963 16.9775H5.51025C5.51025 16.6664 5.64611 16.3736 5.88172 16.1711L5.62707 15.8748ZM7.27295 12.3389C7.27295 13.7021 6.67589 14.9879 5.62828 15.8738L5.88051 16.1721C7.01552 15.2123 7.66357 13.8175 7.66357 12.3389H7.27295ZM7.27295 10.3369V12.3389H7.66357V10.3369H7.27295ZM11.7471 5.17776C9.22112 5.54044 7.27295 7.71357 7.27295 10.3369H7.66357C7.66357 7.91143 9.4654 5.89999 11.8027 5.56442L11.7471 5.17776ZM11.5796 4.59717V5.37109H11.9702V4.59717H11.5796ZM12.4927 3.68408C11.9897 3.68408 11.5796 4.09092 11.5796 4.59717H11.9702C11.9702 4.30752 12.2046 4.07471 12.4927 4.07471V3.68408ZM13.4058 4.59717C13.4058 4.09092 12.9956 3.68408 12.4927 3.68408V4.07471C12.7807 4.07471 13.0151 4.30752 13.0151 4.59717H13.4058ZM13.4058 5.37109V4.59717H13.0151V5.37109H13.4058ZM17.7124 10.3369C17.7124 7.71357 15.7642 5.54044 13.2382 5.17776L13.1827 5.56442C15.52 5.89999 17.3218 7.91143 17.3218 10.3369H17.7124Z" fill="#51AFC6" mask="url(#path-2-inside-1)"/>
</svg>
